<?xml version="1.0" standalone="no"?>
<!DOCTYPE svg PUBLIC "-//W3C//DTD SVG 20010904//EN"
 "http://www.w3.org/TR/2001/REC-SVG-20010904/DTD/svg10.dtd">
<svg version="1.0" xmlns="http://www.w3.org/2000/svg"
 width="92.000000pt" height="92.000000pt" viewBox="0 0 92.000000 92.000000"
 preserveAspectRatio="xMidYMid meet">
<metadata>
Created by potrace 1.11, written by Peter Selinger 2001-2013
</metadata>
<g transform="translate(0.000000,92.000000) scale(0.100000,-0.100000)"
fill="#000000" stroke="none">
<path d="M328 899 c-270 -81 -404 -389 -279 -643 34 -70 113 -154 180 -194
174 -102 406 -72 550 70 65 64 99 122 123 207 45 162 2 324 -119 444 -121 122
-292 166 -455 116z m266 -43 c117 -40 213 -132 259 -250 28 -72 31 -194 7
-270 -38 -121 -145 -232 -263 -273 -70 -24 -204 -24 -274 0 -110 38 -212 138
-256 250 -30 78 -31 204 -3 283 49 134 154 232 288 269 73 20 167 16 242 -9z"/>
<path d="M400 677 c0 -19 -14 -23 -77 -22 -35 1 -54 -3 -57 -12 -6 -14 1 -15
69 -17 22 -1 41 -4 43 -9 9 -22 -9 -29 -75 -30 -65 -1 -85 -9 -61 -27 10 -8
413 -5 416 3 7 20 0 29 -19 24 -21 -6 -31 8 -33 46 -1 20 -6 22 -86 22 -68 0
-85 3 -85 15 0 8 -8 16 -17 18 -11 2 -18 -3 -18 -11z m165 -71 c0 -17 -8 -19
-68 -19 -71 0 -83 4 -74 26 3 9 25 13 73 12 61 0 69 -3 69 -19z"/>
<path d="M289 520 c-1 -3 -2 -24 -3 -47 -3 -48 -8 -45 92 -45 52 0 62 -3 62
-17 0 -15 -11 -17 -87 -17 -78 0 -88 -2 -91 -18 -3 -12 0 -16 8 -11 7 4 5 -5
-4 -23 -9 -17 -16 -36 -16 -41 0 -6 40 -11 98 -13 l97 -3 -3 -27 c-3 -23 1
-28 17 -28 17 0 21 6 21 30 l0 30 90 0 c73 0 90 3 90 15 0 12 -17 15 -91 15
-88 0 -90 1 -87 22 3 21 8 22 80 22 52 0 79 4 82 12 7 17 -9 21 -91 19 -64 -1
-73 1 -73 16 0 15 8 17 56 15 76 -2 82 4 75 89 -1 10 -320 15 -322 5z m277
-29 c17 -2 12 -31 -5 -32 -49 -3 -234 0 -238 5 -3 3 -3 11 0 18 3 10 32 13
118 12 63 -1 119 -2 125 -3z m-140 -130 c7 -1 14 -10 17 -21 5 -19 0 -20 -71
-20 -73 0 -77 1 -78 23 -1 21 2 22 60 21 33 -1 66 -2 72 -3z"/>
</g>
</svg>
